# AST/ASF file generated using VICON BodyLanguage
# -----------------------------------------------
:version 1.10
:name VICON
:units
  mass 1.0
  length 0.45
  angle deg
:documentation
   .ast/.asf automatically generated from VICON data using
   VICON BodyBuilder and BodyLanguage model FoxedUp or BRILLIANT.MOD
:root
   order TX TY TZ RX RY RZ
   axis XYZ
   position 0 0 0  
   orientation 0 0 0 
:bonedata
  begin
     id 1 
     name lhipjoint
     direction 0.690799 -0.707083 0.151096 
     length 2.54797 
     axis 0 0 0  XYZ
  end
  begin
     id 2 
     name lfemur
     direction 0.34202 -0.939693 0  
     length 7.21646  
     axis 0 0 20  XYZ
    dof rx ry rz
    limits (-160.0 20.0)
           (-70.0 70.0)
           (-60.0 70.0)
  end
  begin
     id 3 
     name ltibia
     direction 0.34202 -0.939693 0   
     length 8.16759   
     axis 0 0 20   XYZ
    dof rx
    limits (-10.0 170.0)
  end
  begin
     id 4 
     name lfoot
     direction 0.0487203 -0.133858 0.989802   
     length 1.93375   
     axis -90 7.62852e-016 20   XYZ
    dof rx rz
    limits (-45.0 90.0)
           (-70.0 20.0)
  end
  begin
     id 5 
     name ltoes
     direction 1.53453e-011 -4.21783e-011 1   
     length 0.979747   
     axis -90 7.62852e-016 20   XYZ
    dof rx
    limits (-90.0 20.0)
  end
  begin
     id 6 
     name rhipjoint
     direction -0.694693 -0.703425 0.150315   
     length 2.56122  
     axis 0 0 0  XYZ 
  end
  begin
     id 7 
     name rfemur
     direction -0.34202 -0.939693 0   
     length 7.36786   
     axis 0 0 -20   XYZ
    dof rx ry rz
    limits (-160.0 20.0)
           (-70.0 70.0)
           (-70.0 60.0)
  end
  begin
     id 8 
     name rtibia
     direction -0.34202 -0.939693 0   
     length 8.07288   
     axis 0 0 -20   XYZ
    dof rx
    limits (-10.0 170.0)
 end
 begin
     id 9 
     name rfoot
     direction -0.0428397 -0.117701 0.992125   
     length 1.88295  
     axis -90 -7.62852e-016 -20   XYZ
    dof rx rz
    limits (-45.0 90.0)
           (-20.0 70.0)
  end
  begin
     id 10 
     name rtoes
     direction -1.53456e-011 -4.2187e-011 1   
     length 0.955578   
     axis -90 -7.62852e-016 -20   XYZ
    dof rx
    limits (-90.0 20.0)
  end
  begin
     id 11 
     name lowerback
     direction 0.0288145 0.999398 -0.0193241   
     length 1.92149   
     axis 0 0 0   XYZ
    dof rx ry rz
    limits (-20.0 45.0)
           (-30.0 30.0)
           (-30.0 30.0)
  end
  begin
     id 12 
     name upperback
     direction 0.0233784 0.998099 0.0570278   
     length 1.90435   
     axis 0 0 0   XYZ
    dof rx ry rz
    limits (-20.0 45.0)
           (-30.0 30.0)
           (-30.0 30.0)
  end
  begin
     id 13 
     name thorax
     direction 0.0096694 0.997833 0.0650817   
     length 1.9111   
     axis 0 0 0   XYZ
    dof rx ry rz
    limits (-20.0 45.0)
           (-30.0 30.0)
           (-30.0 30.0)
  end
  begin
     id 14 
     name lowerneck
     direction 0.00516803 0.999916 0.0118722   
     length 1.74664   
     axis 0 0 0   XYZ
    dof rx ry rz
    limits (-20.0 45.0)
           (-30.0 30.0)
           (-30.0 30.0)
  end
  begin
     id 15 
     name upperneck
     direction -0.0510851 0.996117 -0.071696   
     length 1.68498   
     axis 0 0 0   XYZ
    dof rx ry rz
    limits (-20.0 45.0)
           (-30.0 30.0)
           (-30.0 30.0)
  end
  begin
     id 16
     name head
     direction -0.019188 0.999436 -0.0275702  
     length 1.83483  
     axis 0 0 0   XYZ
    dof rx ry rz
    limits (-20.0 45.0)
           (-30.0 30.0)
           (-30.0 30.0)
  end
  begin
     id 17 
     name lclavicle
     direction 0.967006 0.248456 -0.0562957  
     length 3.39395  
     axis 0 0 0   XYZ
    dof ry rz
    limits (-20.0 10.0)
           (0.0 20.0)
  end
  begin
     id 18 
     name lhumerus
     direction 1 -4.48962e-011 -5.62711e-019   
     length 5.24318   
     axis 180 -30 -90   XYZ
    dof rx ry rz
    limits (-60.0 90.0)
           (-90.0 90.0)
           (-90.0 90.0)
  end
  begin
     id 19
     name lradius
     direction 1 -4.48966e-011 7.90625e-027   
     length 2.98999   
     axis 180 -30 -90   XYZ
    dof rx
    limits (-10.0 170.0)
  end
  begin
     id 20
     name lwrist
     direction 1 -4.48959e-011 1.61068e-026   
     length 1.49499   
     axis -9.31229e-015 90 90   XYZ
    dof ry
    limits (-180.0 0.0)
 end
  begin
     id 21 
     name lhand
     direction 1 -4.49017e-011 3.22136e-026   
     length 0.726745   
     axis -2.0555e-014 90 90   XYZ
    dof rx rz
    limits (-90.0 90.0)
           (-45.0 45.0)
  end
  begin
     id 22 
     name lfingers
     direction 1 -4.4898e-011 6.44272e-026   
     length 0.58592   
     axis -4.11101e-014 90 90   XYZ
    dof rx
    limits (0.0 90.0)
  end
  begin
     id 23
     name lthumb
     direction 0.707107 -6.34922e-011 0.707107   
     length 0.841268   
     axis -90 45 2.85299e-015   XYZ
    dof rx rz
    limits (-45.0 45.0)
           (-45.0 45.0)
  end
  begin
     id 24 
     name rclavicle
     direction -0.972232 0.230238 0.0419005   
     length 3.40416  
     axis 0 0 0   XYZ 
    dof ry rz
    limits (-10.0 20.0)
           (-20.0 0.0)
  end
  begin
     id 25 
     name rhumerus
     direction -1 -4.48976e-011 2.48487e-027  
     length 5.37045   
     axis 180 30 90   XYZ
    dof rx ry rz
    limits (-90.0 60.0)
           (-90.0 90.0)
           (-90.0 90.0)
  end
  begin
     id 26 
     name rradius
     direction -1 -4.48942e-011 7.87951e-027   
     length 2.92792   
     axis 180 30 90   XYZ
    dof rx
    limits (-10.0 170.0)
  end
  begin
     id 27 
     name rwrist
     direction -1 -4.48969e-011 1.61068e-026   
     length 1.46396   
     axis -9.31229e-015 -90 -90   XYZ
    dof ry
    limits (-180.0 0.0)
  end
  begin
     id 28
     name rhand
     direction -1 -4.49043e-011 3.22136e-026   
     length 0.784497   
     axis -2.0555e-014 -90 -90   XYZ
    dof rx rz
    limits (-90.0 90.0)
           (-45.0 45.0)
  end
  begin
     id 29
     name rfingers
     direction -1 -4.48823e-011 6.44272e-026   
     length 0.632482   
     axis -4.11101e-014 -90 -90   XYZ
    dof rx
    limits (0.0 90.0)
  end
  begin
     id 30
     name rthumb
     direction -0.707107 -6.34923e-011 0.707107   
     length 0.908121   
     axis -90 -45 -2.85299e-015   XYZ
    dof rx rz
    limits (-45.0 45.0)
           (-45.0 45.0)
  end
:hierarchy
  begin
    root lhipjoint rhipjoint lowerback
    lhipjoint lfemur
    lfemur ltibia
    ltibia lfoot
    lfoot ltoes
    rhipjoint rfemur
    rfemur rtibia
    rtibia rfoot
    rfoot rtoes
    lowerback upperback
    upperback thorax
    thorax lowerneck lclavicle rclavicle
    lowerneck upperneck
    upperneck head
    lclavicle lhumerus
    lhumerus lradius
    lradius lwrist
    lwrist lhand lthumb
    lhand lfingers
    rclavicle rhumerus
    rhumerus rradius
    rradius rwrist
    rwrist rhand rthumb
    rhand rfingers
  end

#!OML:ASF E:\Style6\Style6.ASF
:FULLY-SPECIFIED
:DEGREES
874
root -0.549482 15.9504 -0.0334271 23.1749 16.2828 -7.49512
lowerback 13.8471 0.767531 -0.876254
upperback 0.952975 0.74403 -2.00393
thorax -6.74832 0.361149 -1.77147
lowerneck 3.98144 4.06388 2.71639
upperneck 0.810921 5.54162 -14.1304
head 0.0533735 2.88138 -4.72079
rclavicle 1.03368e-014 1.27222e-014
rhumerus -73.9812 11.1385 -87.1423
rradius 121.088
rwrist -23.4102
rhand 48.0938 2.28809
rfingers 7.12502
rthumb 68.6572 2.69266
lclavicle 1.03368e-014 1.27222e-014
lhumerus -70.632 -16.2611 87.7473
lradius 121.979
lwrist 33.9597
lhand 26.0742 45.0248
lfingers 7.12502
lthumb 50.1455 66.1708
rfemur -62.6758 -28.6434 46.3619
rtibia 61.3555
rfoot -19.8537 9.45293
rtoes 10.3181
lfemur -64.6378 7.3094 -8.04332
ltibia 65.7851
lfoot -21.5276 -8.66607
ltoes -16.0239
875
root -0.522622 15.966 5.41727e-005 22.9096 16.2488 -7.51184
lowerback 13.7964 0.802284 -0.654512
upperback 0.560726 0.825218 -1.88093
thorax -7.13563 0.392533 -1.78824
lowerneck 3.6559 4.03971 2.71677
upperneck -0.19403 5.40236 -13.3369
head -0.226366 2.83415 -4.98386
rclavicle 5.80451e-014 -1.43125e-014
rhumerus -74.3663 11.0681 -87.0924
rradius 121.206
rwrist -23.283
rhand 48.1785 2.4459
rfingers 7.12502
rthumb 68.7165 3.00522
lclavicle 5.80451e-014 -1.43125e-014
lhumerus -71.1838 -16.5971 88.1771
lradius 121.944
lwrist 33.841
lhand 26.0026 44.5595
lfingers 7.12502
lthumb 50.08 65.7402
rfemur -62.0743 -28.6624 45.971
rtibia 61.2387
rfoot -20.01 9.17006
rtoes 9.23982
lfemur -64.1081 7.19219 -8.02711
ltibia 65.6815
lfoot -21.6144 -8.54382
ltoes -16.3008
876
root -0.493696 15.9872 0.0363383 22.6554 16.1672 -7.2917
lowerback 13.6753 0.829616 -0.659974
upperback 0.227765 0.862628 -1.79067
thorax -7.42479 0.410055 -1.70011
lowerneck 3.42616 4.07882 2.48199
upperneck -1.3374 5.33535 -12.7675
head -0.585608 2.82768 -4.74244
rclavicle 1.27222e-014 3.02153e-014
rhumerus -74.6477 11.1141 -86.9077
rradius 121.356
rwrist -23.3338
rhand 48.3103 2.35635
rfingers 7.12502
rthumb 68.8087 3.15839
lclavicle 1.27222e-014 3.02153e-014
lhumerus -71.5816 -16.8072 88.5136
lradius 121.827
lwrist 33.757
lhand 26.0925 44.1189
lfingers 7.12502
lthumb 50.1623 65.256
rfemur -61.4479 -28.7842 45.3093
rtibia 61.1272
rfoot -20.2161 8.86479
rtoes 7.18999
lfemur -63.4565 7.0248 -8.29489
ltibia 65.524
lfoot -21.7636 -8.31691
ltoes -16.9173
877
root -0.462464 16.008 0.075595 22.3527 16.0956 -7.02307
lowerback 13.5315 0.838553 -0.722037
upperback -0.0534001 0.870128 -1.68323
thorax -7.64792 0.416384 -1.55426
lowerneck 2.8935 4.08306 2.60557
upperneck -2.13277 5.2796 -12.5851
head -0.754157 2.8074 -4.70005
rclavicle 1.19271e-014 3.81667e-014
rhumerus -74.8465 11.1894 -86.6701
rradius 121.547
rwrist -23.5098
rhand 48.6812 2.06656
rfingers 7.12502
rthumb 69.0656 3.56301
lclavicle 1.19271e-014 3.81667e-014
lhumerus -71.8917 -16.8948 88.7881
lradius 121.756
lwrist 33.8971
lhand 26.098 44.3969
lfingers 7.12502
lthumb 50.1673 65.5313
rfemur -60.7393 -28.969 44.5677
rtibia 61.0096
rfoot -20.3732 8.69576
rtoes 5.87574
lfemur -62.7263 6.84876 -8.6263
ltibia 65.3444
lfoot -21.9329 -8.17604
ltoes -17.3709
878
root -0.431967 16.0289 0.113036 21.9997 16.0974 -6.91732
lowerback 13.4955 0.789612 -0.632974
upperback -0.347946 0.828221 -1.51166
thorax -7.94639 0.394299 -1.41809
lowerneck 2.12394 4.12219 2.86096
upperneck -2.62572 5.30579 -12.4768
head -0.768642 2.80948 -4.69641
rclavicle 5.08889e-014 -4.92986e-014
rhumerus -75.0752 11.2249 -86.6218
rradius 121.719
rwrist -23.5213
rhand 49.0223 1.88015
rfingers 7.12502
rthumb 69.299 4.03079
lclavicle 5.08889e-014 -4.92986e-014
lhumerus -72.193 -16.9022 89.0019
lradius 121.671
lwrist 34.1
lhand 26.0911 44.7053
lfingers 7.12502
lthumb 50.161 65.8431
rfemur -59.9868 -29.1049 43.9916
rtibia 60.8639
rfoot -20.4595 8.58604
rtoes 5.60762
lfemur -62.0269 6.66801 -8.75162
ltibia 65.1576
lfoot -22.0146 -8.06512
ltoes -17.7415
879
root -0.400992 16.048 0.149141 21.7485 16.0568 -6.7961
lowerback 13.3833 0.723555 -0.561137
upperback -0.667333 0.764 -1.32367
thorax -8.22986 0.362806 -1.24851
lowerneck 1.54009 4.23129 2.78265
upperneck -3.2626 5.40296 -12.1646
head -0.872088 2.85738 -4.56271
rclavicle 2.38542e-015 -3.18055e-014
rhumerus -75.3318 11.2993 -86.6111
rradius 121.857
rwrist -23.563
rhand 49.0081 1.94216
rfingers 7.12502
rthumb 69.2893 4.06533
lclavicle 2.38542e-015 -3.18055e-014
lhumerus -72.4944 -16.7779 89.2136
lradius 121.522
lwrist 34.2497
lhand 26.3214 44.4759
lfingers 7.12502
lthumb 50.3715 65.5013
rfemur -59.3533 -29.1685 43.4483
rtibia 60.7051
rfoot -20.5849 8.29975
rtoes 4.24954
lfemur -61.4134 6.49219 -8.88214
ltibia 64.9647
lfoot -22.0064 -8.16164
ltoes -16.9843
880
root -0.370842 16.0683 0.186472 21.4904 16.0268 -6.71464
lowerback 13.2262 0.666859 -0.457462
upperback -1.02198 0.721645 -1.0964
thorax -8.52612 0.341708 -1.05859
lowerneck 1.26008 4.32384 2.53112
upperneck -3.93499 5.47311 -11.7673
head -1.05178 2.90272 -4.37769
rclavicle 1.19271e-015 2.14687e-014
rhumerus -75.6512 11.4873 -86.5417
rradius 121.961
rwrist -23.8897
rhand 48.6615 1.8845
rfingers 7.12502
rthumb 69.052 3.34359
lclavicle 1.19271e-015 2.14687e-014
lhumerus -72.8737 -16.5714 89.4848
lradius 121.414
lwrist 34.3489
lhand 26.6206 44.2802
lfingers 7.12502
lthumb 50.6448 65.1577
rfemur -58.7013 -29.2108 42.9499
rtibia 60.521
rfoot -20.6852 7.93911
rtoes 2.73883
lfemur -60.7961 6.34945 -8.98104
ltibia 64.747
lfoot -22.1054 -8.08699
ltoes -17.3613
881
root -0.339238 16.093 0.224677 21.2006 16.0615 -6.66799
lowerback 13.1302 0.580559 -0.291343
upperback -1.42631 0.65412 -0.823534
thorax -8.91215 0.306683 -0.850904
lowerneck 1.04768 4.43993 2.30775
upperneck -4.41331 5.5936 -11.4592
head -1.17377 2.97004 -4.22959
rclavicle -3.57812e-015 1.03368e-014
rhumerus -76.027 11.7064 -86.3667
rradius 122.127
rwrist -24.3081
rhand 48.5411 1.46956
rfingers 7.12502
rthumb 68.9689 2.70167
lclavicle -3.57812e-015 1.03368e-014
lhumerus -73.3561 -16.3194 89.7624
lradius 121.384
lwrist 34.5754
lhand 26.6107 44.5559
lfingers 7.12502
lthumb 50.6357 65.4383
rfemur -57.9918 -29.2966 42.4841
rtibia 60.3072
rfoot -20.7043 7.84212
rtoes 2.91381
lfemur -60.1622 6.17231 -9.04365
ltibia 64.4968
lfoot -22.2084 -7.93408
ltoes -18.0025
882
root -0.306643 16.1214 0.263673 20.918 16.0633 -6.41068
lowerback 13.0807 0.492503 -0.302558
upperback -1.8023 0.552415 -0.604275
thorax -9.29722 0.263307 -0.592142
lowerneck 0.631627 4.60541 1.94804
upperneck -4.67917 5.79949 -11.1779
head -1.18751 3.07105 -4.05288
rclavicle 4.85035e-014 -5.56597e-015
rhumerus -76.3654 11.921 -86.1054
rradius 122.29
rwrist -24.5354
rhand 48.7135 1.14402
rfingers 7.12502
rthumb 69.0878 2.70188
lclavicle 4.85035e-014 -5.56597e-015
lhumerus -73.7178 -16.0766 89.97
lradius 121.252
lwrist 34.8588
lhand 26.322 44.7386
lfingers 7.12502
lthumb 50.3721 65.7638
rfemur -57.2329 -29.4662 41.7688
rtibia 60.085
rfoot -20.6647 7.91612
rtoes 3.72787
lfemur -59.431 5.86578 -9.29326
ltibia 64.2263
lfoot -22.1532 -8.02811
ltoes -17.1344
